<?xml version="1.0" encoding="UTF-8" standalone="no" ?>
<!DOCTYPE svg PUBLIC "-//W3C//DTD SVG 1.1//EN" "http://www.w3.org/Graphics/SVG/1.1/DTD/svg11.dtd">
<svg xmlns="http://www.w3.org/2000/svg" xmlns:xlink="http://www.w3.org/1999/xlink" version="1.1" width="1080" height="1080" viewBox="0 0 1080 1080" xml:space="preserve">
<desc>Created with Fabric.js 5.2.4</desc>
<defs>
</defs>
<g transform="matrix(1 0 0 1 540 540)" id="eb869604-bd47-423f-a3e1-2b3678ae6ac8"  >
<rect style="stroke: none; stroke-width: 1; stroke-dasharray: none; stroke-linecap: butt; stroke-dashoffset: 0; stroke-linejoin: miter; stroke-miterlimit: 4; fill: rgb(255,255,255); fill-rule: nonzero; opacity: 1; visibility: hidden;" vector-effect="non-scaling-stroke"  x="-540" y="-540" rx="0" ry="0" width="1080" height="1080" />
</g>
<g transform="matrix(1 0 0 1 540 540)" id="179d1304-5f61-4175-8a04-8c61844543d0"  >
</g>
<g transform="matrix(2.13 0 0 2.13 540 540)"  >
<g style=""   >
		<g transform="matrix(1 0 0 1 -0.19 -1.43)"  >
<rect style="stroke: none; stroke-width: 1; stroke-dasharray: none; stroke-linecap: butt; stroke-dashoffset: 0; stroke-linejoin: miter; stroke-miterlimit: 4; fill: rgb(193,196,222); fill-rule: nonzero; opacity: 1;" vector-effect="non-scaling-stroke"  x="-252.813" y="-251.075" rx="30" ry="30" width="505.626" height="502.15" />
</g>
		<g transform="matrix(1 0 0 1 198.66 -65.57)"  >
<path style="stroke: rgb(255,255,255); stroke-opacity: 0.8; stroke-width: 3; stroke-dasharray: none; stroke-linecap: round; stroke-dashoffset: 0; stroke-linejoin: miter; stroke-miterlimit: 4; fill: none; fill-rule: nonzero; opacity: 1;" vector-effect="non-scaling-stroke"  transform=" translate(-451.66, -186.93)" d="M 509.14 26.8594 C 487.59 78.4654 442.211 161.373 413.456 210.304 C 409.855 216.433 405.468 222.36 402.111 228.57 C 396.81 238.375 393.097 253.415 394.465 263.998 C 397.664 288.728 431.044 310.455 455.631 322.107 C 472.986 330.331 488.113 341.758 507.424 346.996" stroke-linecap="round" />
</g>
		<g transform="matrix(1 0 0 1 165.33 -56.9)"  >
<path style="stroke: rgb(255,255,255); stroke-opacity: 0.8; stroke-width: 3; stroke-dasharray: none; stroke-linecap: round; stroke-dashoffset: 0; stroke-linejoin: miter; stroke-miterlimit: 4; fill: none; fill-rule: nonzero; opacity: 1;" vector-effect="non-scaling-stroke"  transform=" translate(-418.33, -195.6)" d="M 478.708 -11.6797 C 451.053 58.5165 392.677 137.217 355.776 203.776 C 351.155 212.112 345.525 220.175 341.217 228.621 C 334.415 241.958 329.649 262.416 331.406 276.811 C 335.51 310.45 378.346 340.004 409.897 355.853 C 432.056 368.202 478.158 393.029 505.628 402.886" stroke-linecap="round" />
</g>
		<g transform="matrix(1 0 0 1 139.32 -64.2)"  >
<path style="stroke: rgb(255,255,255); stroke-opacity: 0.8; stroke-width: 3; stroke-dasharray: none; stroke-linecap: round; stroke-dashoffset: 0; stroke-linejoin: miter; stroke-miterlimit: 4; fill: none; fill-rule: nonzero; opacity: 1;" vector-effect="non-scaling-stroke"  transform=" translate(-392.32, -188.3)" d="M 460.564 -87.5859 C 419.278 12.0524 366.347 98.4086 311.258 192.884 C 304.359 204.716 295.955 216.161 289.523 228.151 C 279.368 247.081 272.253 276.119 274.875 296.552 C 281.003 344.301 344.953 386.251 392.056 408.746 C 425.306 424.626 473.312 454.081 510.307 464.195" stroke-linecap="round" />
</g>
</g>
</g>
<g transform="matrix(2.13 0 0 2.13 540 540)"  >
<g style="opacity: 1;"   >
		<g transform="matrix(1 0 0 1 -0.19 -1.43)"  >
<rect style="stroke: none; stroke-width: 1; stroke-dasharray: none; stroke-linecap: butt; stroke-dashoffset: 0; stroke-linejoin: miter; stroke-miterlimit: 4; fill: rgb(193,196,222); fill-rule: nonzero; opacity: 1;" vector-effect="non-scaling-stroke"  x="-252.813" y="-251.075" rx="30" ry="30" width="505.626" height="502.15" />
</g>
		<g transform="matrix(1 0 0 1 198.66 -65.57)"  >
<path style="stroke: rgb(255,255,255); stroke-opacity: 0.8; stroke-width: 3; stroke-dasharray: none; stroke-linecap: round; stroke-dashoffset: 0; stroke-linejoin: miter; stroke-miterlimit: 4; fill: none; fill-rule: nonzero; opacity: 1;" vector-effect="non-scaling-stroke"  transform=" translate(-451.66, -186.93)" d="M 509.14 26.8594 C 487.59 78.4654 442.211 161.373 413.456 210.304 C 409.855 216.433 405.468 222.36 402.111 228.57 C 396.81 238.375 393.097 253.415 394.465 263.998 C 397.664 288.728 431.044 310.455 455.631 322.107 C 472.986 330.331 488.113 341.758 507.424 346.996" stroke-linecap="round" />
</g>
		<g transform="matrix(1 0 0 1 165.33 -56.9)"  >
<path style="stroke: rgb(255,255,255); stroke-opacity: 0.8; stroke-width: 3; stroke-dasharray: none; stroke-linecap: round; stroke-dashoffset: 0; stroke-linejoin: miter; stroke-miterlimit: 4; fill: none; fill-rule: nonzero; opacity: 1;" vector-effect="non-scaling-stroke"  transform=" translate(-418.33, -195.6)" d="M 478.708 -11.6797 C 451.053 58.5165 392.677 137.217 355.776 203.776 C 351.155 212.112 345.525 220.175 341.217 228.621 C 334.415 241.958 329.649 262.416 331.406 276.811 C 335.51 310.45 378.346 340.004 409.897 355.853 C 432.056 368.202 478.158 393.029 505.628 402.886" stroke-linecap="round" />
</g>
		<g transform="matrix(1 0 0 1 139.32 -64.2)"  >
<path style="stroke: rgb(255,255,255); stroke-opacity: 0.8; stroke-width: 3; stroke-dasharray: none; stroke-linecap: round; stroke-dashoffset: 0; stroke-linejoin: miter; stroke-miterlimit: 4; fill: none; fill-rule: nonzero; opacity: 1;" vector-effect="non-scaling-stroke"  transform=" translate(-392.32, -188.3)" d="M 460.564 -87.5859 C 419.278 12.0524 366.347 98.4086 311.258 192.884 C 304.359 204.716 295.955 216.161 289.523 228.151 C 279.368 247.081 272.253 276.119 274.875 296.552 C 281.003 344.301 344.953 386.251 392.056 408.746 C 425.306 424.626 473.312 454.081 510.307 464.195" stroke-linecap="round" />
</g>
</g>
</g>
</svg>